<svg xmlns="http://www.w3.org/2000/svg" width="626" height="626" viewBox="0 0 626 626">
<g>
<path d="M 509.61 402.58 C509.18,403.69 506.65,404.00 498.09,404.00 C492.06,404.00 486.89,403.63 486.61,403.18 C486.33,402.73 487.65,392.94 489.54,381.43 C491.43,369.92 492.98,359.76 492.99,358.86 C492.99,357.95 491.68,355.80 490.07,354.08 C484.65,348.27 484.86,340.79 490.58,336.22 L 494.00 333.50 L 494.00 303.75 C494.00,287.39 493.83,274.00 493.63,274.00 C493.10,274.00 401.66,309.34 378.20,318.61 C374.73,319.98 367.76,322.67 362.70,324.59 C357.64,326.50 352.15,328.69 350.50,329.45 C348.85,330.21 340.79,333.36 332.59,336.46 C324.40,339.56 316.88,342.53 315.89,343.06 C314.53,343.79 310.05,342.44 297.49,337.51 C288.36,333.93 280.70,331.00 280.46,331.00 C280.23,331.00 267.32,326.00 251.77,319.89 C236.22,313.78 219.00,307.05 213.50,304.93 C208.00,302.82 193.60,297.21 181.50,292.48 C156.95,282.89 156.43,282.68 114.50,266.48 C98.00,260.10 84.14,254.53 83.71,254.10 C83.27,253.67 89.57,251.03 97.71,248.24 C125.15,238.84 176.33,221.22 202.50,212.17 C216.80,207.23 247.60,196.60 270.95,188.57 L 313.40 173.96 L 326.45 178.39 C341.63,183.55 389.62,200.07 425.50,212.49 C439.25,217.26 457.48,223.53 466.00,226.44 C519.22,244.62 543.94,253.46 543.27,254.08 C542.84,254.48 539.35,256.01 535.50,257.49 C531.65,258.97 522.65,262.51 515.50,265.34 L 502.50 270.50 L 502.29 301.41 L 502.08 332.32 L 506.04 336.16 C509.63,339.64 510.00,340.47 510.00,345.10 C510.00,349.60 509.59,350.61 506.50,353.70 L 503.00 357.20 L 506.57 379.18 C508.54,391.27 509.91,401.80 509.61,402.58 ZM 329.14 451.98 C289.86,455.84 242.07,445.02 202.89,423.39 C193.45,418.18 176.67,407.21 173.25,404.02 L 171.00 401.92 L 171.00 352.96 C171.00,319.01 171.33,304.00 172.06,304.00 C172.65,304.00 175.24,304.88 177.81,305.96 C180.39,307.03 211.95,318.98 247.95,332.51 L 313.40 357.10 L 368.45 336.41 C398.73,325.03 430.48,313.09 439.00,309.88 C447.52,306.66 454.73,304.02 455.00,304.01 C456.09,303.98 454.97,402.34 453.87,403.66 C452.26,405.59 434.01,416.89 423.00,422.77 C392.78,438.91 360.75,448.88 329.14,451.98 Z" fill="rgb(15,21,29)"/>
<path d="M 0.00 313.00 L 0.00 0.00 L 313.00 0.00 L 626.00 0.00 L 626.00 313.00 L 626.00 626.00 L 313.00 626.00 L 0.00 626.00 L 0.00 313.00 ZM 329.14 451.98 C360.75,448.88 392.78,438.91 423.00,422.77 C434.01,416.89 452.26,405.59 453.87,403.66 C454.97,402.34 456.09,303.98 455.00,304.01 C454.73,304.02 447.52,306.66 439.00,309.88 C430.48,313.09 398.73,325.03 368.45,336.41 L 313.40 357.10 L 247.95 332.51 C211.95,318.98 180.39,307.03 177.81,305.96 C175.24,304.88 172.65,304.00 172.06,304.00 C171.33,304.00 171.00,319.01 171.00,352.96 L 171.00 401.92 L 173.25 404.02 C176.67,407.21 193.45,418.18 202.89,423.39 C242.07,445.02 289.86,455.84 329.14,451.98 ZM 509.61 402.58 C509.91,401.80 508.54,391.27 506.57,379.18 L 503.00 357.20 L 506.50 353.70 C509.59,350.61 510.00,349.60 510.00,345.10 C510.00,340.47 509.63,339.64 506.04,336.16 L 502.08 332.32 L 502.29 301.41 L 502.50 270.50 L 515.50 265.34 C522.65,262.51 531.65,258.97 535.50,257.49 C539.35,256.01 542.84,254.48 543.27,254.08 C543.94,253.46 519.22,244.62 466.00,226.44 C457.48,223.53 439.25,217.26 425.50,212.49 C389.62,200.07 341.63,183.55 326.45,178.39 L 313.40 173.96 L 270.95 188.57 C247.60,196.60 216.80,207.23 202.50,212.17 C176.33,221.22 125.15,238.84 97.71,248.24 C89.57,251.03 83.27,253.67 83.71,254.10 C84.14,254.53 98.00,260.10 114.50,266.48 C156.43,282.68 156.95,282.89 181.50,292.48 C193.60,297.21 208.00,302.82 213.50,304.93 C219.00,307.05 236.22,313.78 251.77,319.89 C267.32,326.00 280.23,331.00 280.46,331.00 C280.70,331.00 288.36,333.93 297.49,337.51 C310.05,342.44 314.53,343.79 315.89,343.06 C316.88,342.53 324.40,339.56 332.59,336.46 C340.79,333.36 348.85,330.21 350.50,329.45 C352.15,328.69 357.64,326.50 362.70,324.59 C367.76,322.67 374.73,319.98 378.20,318.61 C401.66,309.34 493.10,274.00 493.63,274.00 C493.83,274.00 494.00,287.39 494.00,303.75 L 494.00 333.50 L 490.58 336.22 C484.86,340.79 484.65,348.27 490.07,354.08 C491.68,355.80 492.99,357.95 492.99,358.86 C492.98,359.76 491.43,369.92 489.54,381.43 C487.65,392.94 486.33,402.73 486.61,403.18 C486.89,403.63 492.06,404.00 498.09,404.00 C506.65,404.00 509.18,403.69 509.61,402.58 Z" fill="rgb(254,254,254)"/>
</g>
</svg>